# xmcd
#
# Track frame offsets:
#	150
#	16950
#	35275
#	50538
#	71413
#	87824
#	105705
#	122897
#	140879
#	158133
#	174736
#	193400
#	209922
#	229229
#	244375
#	260850
#	282100
#	310476
#
# Disc length: 4154 seconds
#
# Revision: 2
# Processed by: cddbd v1.5.2PL0 Copyright (c) Steve Scherf et al.
# Submitted via: audiograbber 1.83.01
#
DISCID=1c103812
DTITLE=Chartbuster - ESP482-05  Hits of 2003
DYEAR=2003
DGENRE=
TTITLE0=Paisley, Brad - Mud On The Tires
TTITLE1=Lonestar - Walking In Menphis
TTITLE2=McBride, Martina - In My Daughters Eyes
TTITLE3=Jackson, Alan - Remember When
TTITLE4=Brock, Chad - You  Are
TTITLE5=Howard, Rebecca Lynn - I Need A Vacation
TTITLE6=McComas, Brian - Your In My Head
TTITLE7=Paisley, Brad - Little Moments
TTITLE8=Loveless, Patty - Loving all Night
TTITLE9=Rogers, Kenny - Handprints On The Wall
TTITLE10=Alan, Gary - Tough Little Boys
TTITLE11=Dalley, Amy - Loves Got An Attitude
TTITLE12=Bates, Jeff - Love Song, The
TTITLE13=Diamond Rio - Wrinkles
TTITLE14=McEntire, Reba - I'm Gonna Take That Mountain
TTITLE15=Wills, Mark - When You Think Of Me
TTITLE16=Messina, Jo Dee - I Wish
TTITLE17=na - na
EXTD=
EXTT0=
EXTT1=
EXTT2=
EXTT3=
EXTT4=
EXTT5=
EXTT6=
EXTT7=
EXTT8=
EXTT9=
EXTT10=
EXTT11=
EXTT12=
EXTT13=
EXTT14=
EXTT15=
EXTT16=
EXTT17=
PLAYORDER=
